<?xml version="1.0" encoding="utf-8"?>
<!-- Generator: Adobe Illustrator 21.0.0, SVG Export Plug-In . SVG Version: 6.00 Build 0)  -->
<svg version="1.1" id="图层_1" xmlns="http://www.w3.org/2000/svg" xmlns:xlink="http://www.w3.org/1999/xlink" x="0px" y="0px"
	 viewBox="0 0 1125 750" style="enable-background:new 0 0 1125 750;" xml:space="preserve">
<style type="text/css">
	.st0{fill:#EFF2D7;stroke:#151216;stroke-miterlimit:10;}
	.st1{fill:#F1BC91;stroke:#151216;stroke-miterlimit:10;}
	.st2{fill:#752E47;stroke:#151216;stroke-miterlimit:10;}
	.st3{fill:#DB667A;stroke:#151216;stroke-miterlimit:10;}
</style>
<g>
	<path class="st0" d="M388,205.9l31.9,492.3c0,10.3,64.5,18.7,144,18.7s144-8.4,144-18.7l31.9-492.3H388z"/>
	<g>
		<path class="st1" d="M563.9,710.5c-35.2,0-69-1.7-95.2-4.7c-31.7-3.7-40.9-7.9-43.2-9.4L394.3,213h339.2l-31.3,483.4
			c-2.3,1.5-11.4,5.7-43.2,9.4C632.9,708.9,599.1,710.5,563.9,710.5z"/>
		<path class="st0" d="M400.6,311c8.6,2,20.8,4.2,38.5,6.2c34.4,4,78.7,6.2,124.8,6.2c46.1,0,90.5-2.2,124.8-6.2
			c17.6-2,29.9-4.2,38.5-6.2l6.3-98H394.3L400.6,311z"/>
	</g>
	<ellipse class="st2" cx="676" cy="579.1" rx="26.8" ry="26.7"/>
	<g>
		<path class="st2" d="M378.3,204.6c0,12.2,83.1,22,185.5,22s185.5-9.9,185.5-22v-52.5H378.3V204.6z"/>
		<ellipse class="st2" cx="563.9" cy="152.1" rx="185.5" ry="22"/>
	</g>
	<g>
		<path class="st2" d="M402.1,147.6c0,10.3,72.4,18.7,161.7,18.7s161.7-8.4,161.7-18.7v-44.5H402.1V147.6z"/>
		<ellipse class="st2" cx="563.9" cy="103.8" rx="161.7" ry="19.2"/>
	</g>
	<path class="st2" d="M563.9,123c66.2,0,123.1-4.6,148.1-11.2c-9.4-8.5-72.1-15-148.1-15s-138.7,6.6-148.1,15
		C440.8,118.4,497.7,123,563.9,123z"/>
	<g>
		<path class="st0" d="M479.4,109.5c0,4.8,17.4,8.7,38.8,8.7s38.8-3.9,38.8-8.7V41.5h-77.6V109.5z"/>
		<ellipse class="st0" cx="518.2" cy="41.5" rx="38.8" ry="8.7"/>
	</g>
	<ellipse class="st2" cx="639.5" cy="648.4" rx="26.8" ry="26.7"/>
	<ellipse class="st2" cx="585.9" cy="664.7" rx="26.8" ry="26.7"/>
	<ellipse class="st2" cx="591.7" cy="605.7" rx="26.8" ry="26.7"/>
	<ellipse class="st2" cx="460.1" cy="510.8" rx="26.8" ry="26.7"/>
	<ellipse class="st2" cx="533" cy="546.4" rx="26.8" ry="26.7"/>
	<ellipse class="st2" cx="460.1" cy="664.7" rx="26.8" ry="26.7"/>
	<ellipse class="st2" cx="479.4" cy="605.7" rx="26.8" ry="26.7"/>
	<ellipse class="st2" cx="506.2" cy="611.3" rx="26.8" ry="26.7"/>
	<ellipse class="st2" cx="537.5" cy="669.8" rx="26.8" ry="26.7"/>
	<g>
		<path class="st3" d="M563.9,392.9c-25.6,0-50.1-9.4-69-26.5L507,353c15.6,14.1,35.8,21.9,56.9,21.9c21.1,0,41.3-7.8,56.9-21.9
			l12.1,13.3C614,383.5,589.4,392.9,563.9,392.9z"/>
		<path class="st3" d="M563.9,263.6c-25.6,0-50.1,9.4-69,26.5l12.1,13.3c15.6-14.1,35.8-21.9,56.9-21.9c21.1,0,41.3,7.8,56.9,21.9
			l12.1-13.3C614,273,589.4,263.6,563.9,263.6z"/>
	</g>
	<path class="st3" d="M605.8,316.1l-25.7-7.6L565,286.5l-6.9,10c2.3,1.1,5.1-0.6,5.1-0.6c0.1-0.1,0.3,0,0.4,0.1
		c0.1,0.1,0,0.3-0.1,0.4c-0.1,0-0.5,0.3-1.1,0.5c1.4,0.1,2.8,0.7,4,1.6c1.7,1.4,2.7,3.6,2.5,5.6l0,0.2l-0.2,0.1
		c-0.5,0.1-1,0.2-1.5,0.2c-1.5,0-3.1-0.6-4.4-1.7c-1.1-0.9-1.9-2.1-2.2-3.3c-0.4,5,0.7,9.8,3.1,13.9c1.6,2.7,3.7,4.8,6,6.3
		c2.2-3.5,6.1-5.9,10.5-5.9c6.9,0,12.4,5.6,12.4,12.4c0,6.9-5.6,12.4-12.4,12.4s-12.4-5.6-12.4-12.4c0-2.2,0.6-4.3,1.6-6.1
		c-2.5-1.6-4.6-3.8-6.3-6.5c-2.8-4.7-3.8-10.3-3-16c-4.3,3.6-7.2,8.4-8.2,13.6c-0.6,3-0.4,6,0.3,8.7c0.9-0.3,1.8-0.4,2.8-0.5
		c3.3-0.2,6.5,0.9,9,3.1c2.5,2.2,4,5.2,4.2,8.6c0.2,3.3-0.9,6.5-3.1,9c-2.2,2.5-5.2,4-8.6,4.2c-0.3,0-0.5,0-0.8,0
		c-3,0-5.9-1.1-8.2-3.1c-2.5-2.2-4-5.2-4.2-8.6c-0.2-3.3,0.9-6.5,3.1-9c1.4-1.6,3.2-2.8,5.2-3.5c-0.8-2.8-0.9-5.9-0.4-9
		c1-5.3,3.9-10.2,8.3-13.9c-0.6,0-1.2-0.2-1.8-0.5l-7.9,11.5l-25.7,7.6l16.3,21.2l-0.7,26.8l25.2-9l25.2,9l-0.7-26.8L605.8,316.1z"
		/>
</g>
</svg>
